<svg xmlns="http://www.w3.org/2000/svg" width="100%" viewBox="0 0 680 760" font-family="-apple-system, 'Segoe UI', Helvetica, Arial, sans-serif">
<defs>
  <marker id="arrow" viewBox="0 0 10 10" refX="8" refY="5" markerWidth="6" markerHeight="6" orient="auto-start-reverse">
    <path d="M2 1L8 5L2 9" fill="none" stroke="#888780" stroke-width="1.5" stroke-linecap="round" stroke-linejoin="round"/>
  </marker>
</defs>

<g>
  <rect x="40" y="30" width="180" height="56" rx="8" fill="#EEEDFE" stroke="#534AB7" stroke-width="0.5"/>
  <text font-size="14" font-weight="500" fill="#3C3489" x="130" y="50" text-anchor="middle" dominant-baseline="central">OpenAlex taxonomy</text>
  <text font-size="12" fill="#534AB7" x="130" y="68" text-anchor="middle" dominant-baseline="central">Research topics</text>
</g>

<g>
  <rect x="250" y="30" width="180" height="56" rx="8" fill="#F1EFE8" stroke="#5F5E5A" stroke-width="0.5"/>
  <text font-size="14" font-weight="500" fill="#444441" x="340" y="50" text-anchor="middle" dominant-baseline="central">O*NET methodology</text>
  <text font-size="12" fill="#5F5E5A" x="340" y="68" text-anchor="middle" dominant-baseline="central">Task statement format</text>
</g>

<g>
  <rect x="460" y="30" width="180" height="56" rx="8" fill="#F1EFE8" stroke="#5F5E5A" stroke-width="0.5"/>
  <text font-size="14" font-weight="500" fill="#444441" x="550" y="50" text-anchor="middle" dominant-baseline="central">Engineered prompts</text>
  <text font-size="12" fill="#5F5E5A" x="550" y="68" text-anchor="middle" dominant-baseline="central">Coverage thresholds</text>
</g>

<line x1="130" y1="86" x2="270" y2="122" stroke="#888780" stroke-width="1.5" marker-end="url(#arrow)"/>
<line x1="340" y1="86" x2="340" y2="122" stroke="#888780" stroke-width="1.5" marker-end="url(#arrow)"/>
<line x1="550" y1="86" x2="410" y2="122" stroke="#888780" stroke-width="1.5" marker-end="url(#arrow)"/>

<g>
  <rect x="200" y="122" width="280" height="48" rx="8" fill="#E1F5EE" stroke="#0F6E56" stroke-width="0.5"/>
  <text font-size="14" font-weight="500" fill="#085041" x="340" y="146" text-anchor="middle" dominant-baseline="central">LLM task generation</text>
</g>

<line x1="340" y1="170" x2="340" y2="208" stroke="#888780" stroke-width="1.5" marker-end="url(#arrow)"/>

<g>
  <rect x="80" y="208" width="520" height="240" rx="16" fill="#E1F5EE" stroke="#0F6E56" stroke-width="0.5"/>
  <text font-size="14" font-weight="500" fill="#085041" x="96" y="230" text-anchor="start">Domain</text>
  <text font-size="12" fill="#0F6E56" x="96" y="246" text-anchor="start">5 domains À researcher-supervised</text>
</g>

<g>
  <rect x="100" y="258" width="480" height="175" rx="12" fill="#EAF3DE" stroke="#3B6D11" stroke-width="0.5"/>
  <text font-size="14" font-weight="500" fill="#27500A" x="116" y="280" text-anchor="start">Field</text>
  <text font-size="12" fill="#3B6D11" x="116" y="296" text-anchor="start">~30 fields À researcher-supervised</text>
</g>

<g>
  <rect x="120" y="308" width="440" height="110" rx="10" fill="#EEEDFE" stroke="#534AB7" stroke-width="0.5"/>
  <text font-size="14" font-weight="500" fill="#3C3489" x="136" y="330" text-anchor="start">Subfield</text>
  <text font-size="12" fill="#534AB7" x="136" y="346" text-anchor="start">~300 subfields À unsupervised, 70% coverage</text>
</g>

<g>
  <rect x="140" y="358" width="400" height="48" rx="8" fill="#FBEAF0" stroke="#993556" stroke-width="0.5"/>
  <text font-size="14" font-weight="500" fill="#72243E" x="156" y="374" text-anchor="start" dominant-baseline="central">Topic</text>
  <text font-size="12" fill="#993556" x="156" y="392" text-anchor="start" dominant-baseline="central">~4,500 topics À unsupervised, 80% coverage</text>
</g>

<line x1="340" y1="448" x2="340" y2="486" stroke="#888780" stroke-width="1.5" marker-end="url(#arrow)"/>

<rect x="50" y="486" width="580" height="104" rx="12" fill="none" stroke="#B4B2A9" stroke-dasharray="4 3" stroke-width="0.5"/>
<text font-size="14" font-weight="500" fill="#2C2C2A" x="340" y="506" text-anchor="middle">Validation</text>

<g>
  <rect x="60" y="516" width="186" height="64" rx="6" fill="#FAECE7" stroke="#993C1D" stroke-width="0.5"/>
  <text font-size="14" font-weight="500" fill="#712B13" x="153" y="534" text-anchor="middle" dominant-baseline="central">Research protocols</text>
  <text font-size="12" fill="#993C1D" x="153" y="552" text-anchor="middle" dominant-baseline="central">protocols.io (20,600)</text>
  <text font-size="12" fill="#993C1D" x="153" y="568" text-anchor="middle" dominant-baseline="central">Bio-protocol (85,000)</text>
</g>

<g>
  <rect x="256" y="516" width="186" height="64" rx="6" fill="#FAECE7" stroke="#993C1D" stroke-width="0.5"/>
  <text font-size="14" font-weight="500" fill="#712B13" x="349" y="534" text-anchor="middle" dominant-baseline="central">Scientific papers</text>
  <text font-size="12" fill="#993C1D" x="349" y="552" text-anchor="middle" dominant-baseline="central">OpenAlex, arXiv, etc.</text>
</g>

<g>
  <rect x="452" y="516" width="168" height="64" rx="6" fill="#FAECE7" stroke="#993C1D" stroke-width="0.5"/>
  <text font-size="14" font-weight="500" fill="#712B13" x="536" y="548" text-anchor="middle" dominant-baseline="central">Patent filings</text>
</g>

<line x1="340" y1="590" x2="340" y2="638" stroke="#888780" stroke-width="1.5" marker-end="url(#arrow)"/>

<g>
  <rect x="150" y="638" width="380" height="80" rx="10" fill="#E6F1FB" stroke="#185FA5" stroke-width="0.5"/>
  <text font-size="14" font-weight="500" fill="#0C447C" x="340" y="660" text-anchor="middle" dominant-baseline="central">SciNET</text>
  <text font-size="12" fill="#185FA5" x="340" y="680" text-anchor="middle" dominant-baseline="central">5 domains À 30 fields À 300 subfields</text>
  <text font-size="12" fill="#185FA5" x="340" y="696" text-anchor="middle" dominant-baseline="central">4,516 topics À 100,000+ tasks</text>
</g>

<rect x="40" y="638" width="100" height="80" rx="8" fill="none" stroke="#B4B2A9" stroke-dasharray="4 3" stroke-width="0.5"/>
<text font-size="14" font-weight="500" fill="#2C2C2A" x="90" y="656" text-anchor="middle">Enrichment</text>
<text font-size="12" fill="#5F5E5A" x="90" y="672" text-anchor="middle">Task ratings</text>
<text font-size="12" fill="#5F5E5A" x="90" y="688" text-anchor="middle">AI exposure</text>
<text font-size="12" fill="#5F5E5A" x="90" y="704" text-anchor="middle">Expert surveys</text>

<line x1="140" y1="678" x2="148" y2="678" stroke="#888780" stroke-width="1.5" marker-end="url(#arrow)"/>
</svg>
